<svg width="20" height="20" viewBox="0 0 20 20" fill="none" xmlns="http://www.w3.org/2000/svg">
<g opacity="0.3">
<path d="M10 0C15.527 0 20 4.47254 20 10C20 15.5271 15.5275 20 10 20C4.47297 20 0 15.5275 0 10C0 4.47293 4.47254 0 10 0ZM10 18.4375C14.6634 18.4375 18.4375 14.6638 18.4375 10C18.4375 5.33652 14.6638 1.5625 10 1.5625C5.33656 1.5625 1.5625 5.33621 1.5625 10C1.5625 14.6635 5.33621 18.4375 10 18.4375Z" fill="black"/>
<path d="M6.56132 12.3338L8.87779 10.0173L6.56132 7.70087C6.25624 7.39579 6.2562 6.90114 6.56128 6.59603C6.86643 6.29091 7.36108 6.29095 7.66612 6.59603L9.98264 8.91251L12.2992 6.59603C12.6042 6.29091 13.0989 6.29091 13.404 6.59603C13.7091 6.90114 13.7091 7.39579 13.404 7.70087L11.0875 10.0173L13.404 12.3338C13.7091 12.6389 13.7091 13.1336 13.404 13.4387C13.0988 13.7438 12.6042 13.7437 12.2992 13.4387L9.98264 11.1222L7.66612 13.4387C7.36112 13.7437 6.86639 13.7438 6.56128 13.4387C6.25616 13.1336 6.2562 12.6389 6.56132 12.3338Z" fill="black"/>
</g>
</svg>
