<svg width="32" height="50" viewBox="0 0 32 50" fill="none" xmlns="http://www.w3.org/2000/svg">
<path d="M31.7327 24.7429C31.5486 30.334 30.5746 35.7242 28.0011 40.7284C26.3804 43.8333 24.2416 46.6226 21.6821 48.97C21.5542 49.0782 21.404 49.155 21.2426 49.1944C21.0815 49.2338 20.9134 49.2348 20.7517 49.1974C20.5359 49.1142 20.3558 48.6674 20.328 48.3688C20.1301 45.7184 19.7204 43.1351 18.1743 40.901C17.8719 40.4648 17.5285 40.06 17.1488 39.6926C16.2342 38.8031 15.4701 38.8254 14.5318 39.6926C12.9342 41.1732 12.2433 43.1351 11.7959 45.2026C11.5801 46.2079 11.5326 47.2498 11.3723 48.2673C11.3228 48.5821 11.2119 49.0796 11.0239 49.1365C10.8501 49.1808 10.669 49.1854 10.4932 49.1503C10.3174 49.1154 10.1513 49.0412 10.0063 48.9334C9.09965 48.0987 8.15141 47.2701 7.4328 46.279C6.17376 44.5567 5.00973 42.7492 3.91104 40.9112C2.28576 38.1918 1.32366 35.1738 0.801038 32.0624C0.372676 29.3249 0.108229 26.563 0.00918526 23.7924C-0.0739592 22.0275 0.385314 20.291 2.29368 19.6919C3.19837 19.4076 4.24956 19.4177 5.20374 19.5416C8.66611 19.9905 12.1107 20.5571 15.4028 21.8447C15.7215 21.9686 16.1709 21.861 16.5233 21.7432C20.2528 20.4968 24.119 19.732 28.0328 19.4665C30.0777 19.3263 31.6515 21.0506 31.7386 23.2197C31.7505 23.7274 31.7327 24.2351 31.7327 24.7429ZM10.8398 35.4439C10.8793 35.3342 10.9585 35.1575 11.008 34.9727C11.0575 34.7879 11.0872 34.5665 11.1268 34.3472C17.3211 36.2156 20.8982 40.2796 21.5614 46.9898C21.7486 46.8809 21.924 46.7516 22.084 46.6039C23.2044 45.2513 24.4595 43.9901 25.3979 42.5136C29.0998 36.6807 30.4855 30.1756 30.3846 23.2846C30.3588 21.6111 29.1968 20.6607 27.9081 20.878C25.2276 21.3248 22.5413 21.7493 19.8628 22.2123C19.279 22.3454 18.7027 22.5115 18.1367 22.7099L18.1723 22.9536L23.4677 25.1145L22.9629 26.0406C19.2195 24.7652 15.5869 23.4796 11.9246 22.2956C9.16811 21.406 6.30137 20.9272 3.41217 20.8739C2.45403 20.8556 1.86014 21.3918 1.55924 22.2265C1.35923 22.7939 1.27565 23.3976 1.31376 23.9995C1.46223 26.132 1.62061 28.2645 1.89577 30.3889C2.63814 36.1466 4.94441 41.1975 8.62652 45.5905C9.05016 46.0962 9.55299 46.5328 10.1013 47.0873C10.7586 43.1655 11.5445 39.6114 15.3533 37.4951L10.8398 35.4439Z" fill="#A2C2CF"/>
<path d="M15.8115 0C18.1778 2.10655 19.9926 4.3036 22.0266 9.90172C23.6087 9.19181 25.0868 8.40299 26.7005 7.79051C28.3142 7.17804 29.964 6.74652 31.7427 6.18972C30.8387 9.74858 30.016 13.0314 29.2024 16.2631L21.7577 17.3257C21.5701 15.7017 21.3283 14.1171 21.1226 12.3377C18.4106 14.3097 16.9416 16.4997 15.8386 19.4392C14.8352 16.4232 13.1401 14.3259 10.6133 12.3377C10.3873 14.1519 10.1071 15.6297 9.89915 17.321L2.48609 16.277C1.6702 13.029 0.84301 9.74394 0 6.3614C3.45566 6.9762 6.62655 8.24291 9.75451 10.0107C11.0382 6.141 12.8214 2.67494 15.8115 0ZM11.036 10.6719L15.7821 15.015L20.6706 10.5977C19.8412 7.78358 18.3089 4.48453 15.8386 1.95343C13.4475 4.47061 12.0372 7.47964 11.0315 10.6673L11.036 10.6719ZM28.1266 14.7458L29.9369 8.04574C27.7424 9.07349 24.6257 10.2497 22.4787 11.4097C22.7047 12.5697 22.8674 14.5069 23.0911 15.762C24.6483 15.5137 26.2372 15.2655 27.8238 14.9987C27.8902 14.984 27.9521 14.9534 28.0048 14.9094C28.0572 14.8655 28.099 14.8094 28.1266 14.7458ZM1.799 8.04574C2.32334 10.0804 2.96975 12.4769 3.50538 14.5092C3.54833 14.6762 3.63421 14.9523 3.73139 14.9732C5.37673 15.2493 7.02659 15.4905 8.62221 15.7318C8.87533 14.196 9.00188 12.9571 9.25727 11.4097L1.799 8.04574Z" fill="#483632"/>
</svg>
