<svg width="41" height="25" viewBox="0 0 41 25" fill="none" xmlns="http://www.w3.org/2000/svg">
<g clip-path="url(#clip0_55_296)">
<path d="M40.7145 12.5C40.7145 19.2211 35.2859 24.7143 28.5002 24.7143C21.7791 24.7143 16.2859 19.2211 16.2859 12.5C16.2859 5.7789 21.7145 0.285706 28.4355 0.285706C35.2859 0.285706 40.7145 5.7789 40.7145 12.5Z" fill="#FFB600"/>
<path d="M28.5002 0.285706C35.2213 0.285706 40.7145 5.7789 40.7145 12.5C40.7145 19.2211 35.2859 24.7143 28.5002 24.7143C21.7791 24.7143 16.2859 19.2211 16.2859 12.5" fill="#F7981D"/>
<path d="M28.5002 0.285706C35.2213 0.285706 40.7145 5.7789 40.7145 12.5C40.7145 19.2211 35.286 24.7143 28.5002 24.7143" fill="#FF8500"/>
<path d="M12.085 0.285706C5.42857 0.350331 0 5.7789 0 12.5C0 19.2211 5.42857 24.7143 12.2143 24.7143C15.381 24.7143 18.2245 23.4864 20.4218 21.5476C20.8741 21.1599 21.2619 20.7075 21.6497 20.2551H19.1293C18.8061 19.8673 18.483 19.415 18.2245 19.0272H22.5544C22.8129 18.6394 23.0714 18.1871 23.2653 17.7347H17.5136C17.3197 17.3469 17.1258 16.8945 16.9966 16.4422H23.7177C24.1054 15.2143 24.3639 13.9218 24.3639 12.5646C24.3639 11.6599 24.2347 10.8197 24.1054 9.97958H16.6088C16.6735 9.5272 16.8027 9.13945 16.932 8.68707H23.6531C23.5238 8.23468 23.3299 7.7823 23.1361 7.39455H17.449C17.6429 6.94217 17.9014 6.55441 18.1599 6.10203H22.4898C22.2313 5.64965 21.9082 5.19727 21.5204 4.80951H19.1293C19.517 4.35713 19.9048 3.96938 20.3571 3.58162C18.2245 1.57822 15.3163 0.414957 12.1497 0.414957C12.1497 0.285705 12.1497 0.285706 12.085 0.285706Z" fill="#FF5050"/>
<path d="M0 12.4999C0 19.221 5.42857 24.7142 12.2143 24.7142C15.381 24.7142 18.2245 23.4863 20.4218 21.5476C20.8741 21.1598 21.2619 20.7074 21.6497 20.255H19.1293C18.8061 19.8673 18.483 19.4149 18.2245 19.0272H22.5544C22.8129 18.6394 23.0714 18.187 23.2653 17.7346H17.5136C17.3197 17.3469 17.1258 16.8945 16.9966 16.4421H23.7177C24.1054 15.2142 24.3639 13.9217 24.3639 12.5646C24.3639 11.6598 24.2347 10.8197 24.1054 9.97954H16.6088C16.6735 9.52716 16.8027 9.13941 16.932 8.68702H23.6531C23.5238 8.23464 23.3299 7.78226 23.1361 7.39451H17.449C17.6429 6.94213 17.9014 6.55437 18.1599 6.10199H22.4898C22.2313 5.64961 21.9082 5.19723 21.5204 4.80947H19.1293C19.517 4.35709 19.9048 3.96934 20.3571 3.58158C18.2245 1.57818 15.3163 0.414917 12.1497 0.414917H12.085" fill="#E52836"/>
<path d="M12.2142 24.7142C15.3809 24.7142 18.2244 23.4863 20.4217 21.5476C20.8741 21.1598 21.2618 20.7074 21.6496 20.255H19.1292C18.806 19.8673 18.4829 19.4149 18.2244 19.0272H22.5543C22.8129 18.6394 23.0714 18.187 23.2652 17.7346H17.5135C17.3197 17.3469 17.1258 16.8945 16.9965 16.4421H23.7176C24.1054 15.2142 24.3639 13.9217 24.3639 12.5646C24.3639 11.6598 24.2346 10.8197 24.1054 9.97954H16.6088C16.6734 9.52716 16.8026 9.13941 16.9319 8.68702H23.653C23.5237 8.23464 23.3299 7.78226 23.136 7.39451H17.4489C17.6428 6.94213 17.9013 6.55437 18.1598 6.10199H22.4897C22.2312 5.64961 21.9081 5.19723 21.5203 4.80947H19.1292C19.5169 4.35709 19.9047 3.96934 20.3571 3.58158C18.2244 1.57818 15.3163 0.414917 12.1496 0.414917H12.085" fill="#CB2026"/>
<path d="M16.5443 15.6021L16.7382 14.5035C16.6736 14.5035 16.5443 14.5681 16.4151 14.5681C15.9627 14.5681 15.8981 14.3096 15.9627 14.1803L16.3504 11.9184H17.0613L17.2552 10.6905H16.6089L16.7382 9.91504H15.4457C15.4457 9.91504 14.6702 14.1803 14.6702 14.6974C14.6702 15.4729 15.1225 15.796 15.7042 15.796C16.0919 15.796 16.4151 15.6667 16.5443 15.6021Z" fill="white"/>
<path d="M16.9966 13.5341C16.9966 15.3437 18.2245 15.796 19.2585 15.796C20.2279 15.796 20.6156 15.6022 20.6156 15.6022L20.8741 14.3743C20.8741 14.3743 20.1632 14.6974 19.517 14.6974C18.0952 14.6974 18.3537 13.6634 18.3537 13.6634H21.0034C21.0034 13.6634 21.1973 12.8233 21.1973 12.5001C21.1973 11.66 20.7449 10.626 19.3231 10.626C17.966 10.4967 16.9966 11.9185 16.9966 13.5341ZM19.2585 11.66C19.9694 11.66 19.8401 12.5001 19.8401 12.5648H18.4183C18.4183 12.5001 18.5476 11.66 19.2585 11.66Z" fill="white"/>
<path d="M27.466 15.6021L27.7245 14.1803C27.7245 14.1803 27.0783 14.5034 26.6259 14.5034C25.7211 14.5034 25.3334 13.7926 25.3334 13.017C25.3334 11.466 26.1089 10.6259 27.0137 10.6259C27.6599 10.6259 28.1769 11.0136 28.1769 11.0136L28.3708 9.6565C28.3708 9.6565 27.5953 9.33337 26.8844 9.33337C25.398 9.33337 23.9116 10.6259 23.9116 13.0817C23.9116 14.6973 24.6871 15.796 26.2382 15.796C26.7552 15.796 27.466 15.6021 27.466 15.6021Z" fill="white"/>
<path d="M9.43552 10.4966C8.53076 10.4966 7.8845 10.7551 7.8845 10.7551L7.69062 11.8538C7.69062 11.8538 8.27225 11.5953 9.11239 11.5953C9.56477 11.5953 9.95252 11.6599 9.95252 12.0477C9.95252 12.3062 9.8879 12.3708 9.8879 12.3708C9.8879 12.3708 9.50014 12.3708 9.30626 12.3708C8.20763 12.3708 6.97974 12.8232 6.97974 14.3096C6.97974 15.4728 7.75525 15.7313 8.20763 15.7313C9.11239 15.7313 9.50014 15.1497 9.56477 15.1497L9.50014 15.6667H10.6634L11.1804 12.1123C11.1804 10.5613 9.8879 10.4966 9.43552 10.4966ZM9.69402 13.4048C9.69402 13.5987 9.56477 14.6327 8.78926 14.6327C8.4015 14.6327 8.27225 14.3096 8.27225 14.1157C8.27225 13.7926 8.46613 13.3402 9.43552 13.3402C9.62939 13.4048 9.69402 13.4048 9.69402 13.4048Z" fill="white"/>
<path d="M12.4083 15.7313C12.7314 15.7313 14.3471 15.7959 14.3471 14.051C14.3471 12.4353 12.796 12.7585 12.796 12.1122C12.796 11.7891 13.0545 11.6598 13.5069 11.6598C13.7008 11.6598 14.4117 11.7245 14.4117 11.7245L14.6056 10.5612C14.6056 10.5612 14.1532 10.4319 13.3777 10.4319C12.4083 10.4319 11.4389 10.8197 11.4389 12.1122C11.4389 13.5986 13.0545 13.4694 13.0545 14.051C13.0545 14.4387 12.6021 14.5034 12.279 14.5034C11.6974 14.5034 11.1158 14.3095 11.1158 14.3095L10.9219 15.4728C10.9865 15.602 11.3096 15.7313 12.4083 15.7313Z" fill="white"/>
<path d="M38.1939 9.46259L37.9354 11.2075C37.9354 11.2075 37.4184 10.5612 36.7075 10.5612C35.5443 10.5612 34.5103 11.983 34.5103 13.6633C34.5103 14.6973 35.0273 15.7959 36.1259 15.7959C36.9014 15.7959 37.3538 15.2789 37.3538 15.2789L37.2892 15.7313H38.5817L39.5511 9.52721L38.1939 9.46259ZM37.6123 12.8878C37.6123 13.5986 37.2892 14.5034 36.5783 14.5034C36.1259 14.5034 35.8674 14.1156 35.8674 13.4694C35.8674 12.4354 36.3198 11.7891 36.9014 11.7891C37.3538 11.7891 37.6123 12.1122 37.6123 12.8878Z" fill="white"/>
<path d="M2.39122 15.6667L3.16673 11.0136L3.29598 15.6667H4.20075L5.88102 11.0136L5.17013 15.6667H6.52728L7.56129 9.46259H5.42864L4.13612 13.2755L4.07149 9.46259H2.19734L1.16333 15.6667H2.39122Z" fill="white"/>
<path d="M22.4252 15.6667C22.8129 13.5341 22.8776 11.7892 23.7823 12.1123C23.9116 11.2722 24.1055 10.949 24.2347 10.6259C24.2347 10.6259 24.1701 10.6259 23.9762 10.6259C23.3946 10.6259 22.9422 11.4014 22.9422 11.4014L23.0714 10.6905H21.8436L21.0034 15.7314H22.4252V15.6667Z" fill="white"/>
<path d="M30.4389 10.4966C29.5342 10.4966 28.8879 10.7551 28.8879 10.7551L28.694 11.8538C28.694 11.8538 29.2757 11.5953 30.1158 11.5953C30.5682 11.5953 30.9559 11.6599 30.9559 12.0477C30.9559 12.3062 30.8913 12.3708 30.8913 12.3708C30.8913 12.3708 30.5036 12.3708 30.3097 12.3708C29.211 12.3708 27.9832 12.8232 27.9832 14.3096C27.9832 15.4728 28.7587 15.7313 29.211 15.7313C30.1158 15.7313 30.5036 15.1497 30.5682 15.1497L30.5036 15.6667H31.6668L32.1838 12.1123C32.2485 10.5613 30.8913 10.4966 30.4389 10.4966ZM30.7621 13.4048C30.7621 13.5987 30.6328 14.6327 29.8573 14.6327C29.4695 14.6327 29.3403 14.3096 29.3403 14.1157C29.3403 13.7926 29.5342 13.3402 30.5036 13.3402C30.6974 13.4048 30.6974 13.4048 30.7621 13.4048Z" fill="white"/>
<path d="M33.2824 15.6667C33.6701 13.5341 33.7347 11.7892 34.6395 12.1123C34.7688 11.2722 34.9626 10.949 35.0919 10.6259C35.0919 10.6259 35.0273 10.6259 34.8334 10.6259C34.2517 10.6259 33.7994 11.4014 33.7994 11.4014L33.9286 10.6905H32.7007L31.8606 15.7314H33.2824V15.6667Z" fill="white"/>
<path d="M14.541 14.6974C14.541 15.4729 14.9934 15.796 15.575 15.796C16.0274 15.796 16.4152 15.6667 16.5444 15.6021L16.7383 14.5035C16.6737 14.5035 16.5444 14.5681 16.4152 14.5681C15.9628 14.5681 15.8982 14.3096 15.9628 14.1803L16.3505 11.9184H17.0614L17.2553 10.6905H16.609L16.7383 9.91504" fill="#DCE5E5"/>
<path d="M17.6431 13.5341C17.6431 15.3437 18.2247 15.796 19.2587 15.796C20.2281 15.796 20.6159 15.6022 20.6159 15.6022L20.8744 14.3743C20.8744 14.3743 20.1635 14.6974 19.5172 14.6974C18.0954 14.6974 18.354 13.6634 18.354 13.6634H21.0036C21.0036 13.6634 21.1975 12.8233 21.1975 12.5001C21.1975 11.66 20.7451 10.626 19.3233 10.626C17.9662 10.4967 17.6431 11.9185 17.6431 13.5341ZM19.2587 11.66C19.9696 11.66 20.0989 12.5001 20.0989 12.5648H18.4186C18.4186 12.5001 18.5478 11.66 19.2587 11.66Z" fill="#DCE5E5"/>
<path d="M27.466 15.6021L27.7245 14.1803C27.7245 14.1803 27.0783 14.5034 26.6259 14.5034C25.7211 14.5034 25.3334 13.7926 25.3334 13.017C25.3334 11.466 26.1089 10.6259 27.0136 10.6259C27.6599 10.6259 28.1769 11.0136 28.1769 11.0136L28.3708 9.6565C28.3708 9.6565 27.5953 9.33337 26.8844 9.33337C25.398 9.33337 24.5579 10.6259 24.5579 13.0817C24.5579 14.6973 24.6871 15.796 26.2381 15.796C26.7551 15.796 27.466 15.6021 27.466 15.6021Z" fill="#DCE5E5"/>
<path d="M7.69062 11.9184C7.69062 11.9184 8.27225 11.6599 9.11239 11.6599C9.56477 11.6599 9.95252 11.7246 9.95252 12.1123C9.95252 12.3708 9.8879 12.4354 9.8879 12.4354C9.8879 12.4354 9.50014 12.4354 9.30626 12.4354C8.20763 12.4354 6.97974 12.8878 6.97974 14.3742C6.97974 15.5375 7.75525 15.796 8.20763 15.796C9.11239 15.796 9.50014 15.2143 9.56477 15.2143L9.50014 15.7314H10.6634L11.1804 12.1769C11.1804 10.6905 9.8879 10.6259 9.37089 10.6259L7.69062 11.9184ZM10.3403 13.4048C10.3403 13.5987 9.56477 14.6327 8.78926 14.6327C8.4015 14.6327 8.27225 14.3096 8.27225 14.1157C8.27225 13.7926 8.46613 13.3402 9.43552 13.3402C9.62939 13.4048 10.3403 13.4048 10.3403 13.4048Z" fill="#DCE5E5"/>
<path d="M10.9863 15.602C10.9863 15.602 11.3741 15.7313 12.4727 15.7313C12.7959 15.7313 14.4115 15.7959 14.4115 14.051C14.4115 12.4353 12.8605 12.7585 12.8605 12.1122C12.8605 11.7891 13.119 11.6598 13.5714 11.6598C13.7652 11.6598 14.4761 11.7245 14.4761 11.7245L14.67 10.5612C14.67 10.5612 14.2176 10.4319 13.4421 10.4319C12.4727 10.4319 12.1496 10.8197 12.1496 12.1122C12.1496 13.5986 13.119 13.4694 13.119 14.051C13.119 14.4387 12.6666 14.5034 12.3435 14.5034" fill="#DCE5E5"/>
<path d="M37.9352 11.2076C37.9352 11.2076 37.4182 10.5614 36.7073 10.5614C35.5441 10.5614 35.1563 11.9831 35.1563 13.6634C35.1563 14.6974 35.027 15.796 36.1257 15.796C36.9012 15.796 37.3536 15.279 37.3536 15.279L37.289 15.7314H38.5815L39.5509 9.52734L37.9352 11.2076ZM37.8706 12.8879C37.8706 13.5988 37.289 14.5035 36.5781 14.5035C36.1257 14.5035 35.8672 14.1158 35.8672 13.4695C35.8672 12.4355 36.3196 11.7892 36.9012 11.7892C37.3536 11.7892 37.8706 12.1124 37.8706 12.8879Z" fill="#DCE5E5"/>
<path d="M2.39122 15.6667L3.16673 11.0136L3.29598 15.6667H4.20075L5.88102 11.0136L5.17013 15.6667H6.52728L7.56129 9.46259H5.94564L4.13612 13.2755L4.07149 9.46259H3.36061L1.16333 15.6667H2.39122Z" fill="#DCE5E5"/>
<path d="M21.0681 15.6667H22.4253C22.813 13.5341 22.8776 11.7892 23.7824 12.1123C23.9116 11.2722 24.1055 10.949 24.2348 10.6259C24.2348 10.6259 24.1702 10.6259 23.9763 10.6259C23.3946 10.6259 22.9423 11.4014 22.9423 11.4014L23.0715 10.6905" fill="#DCE5E5"/>
<path d="M28.694 11.9184C28.694 11.9184 29.2757 11.6599 30.1158 11.6599C30.5682 11.6599 30.9559 11.7246 30.9559 12.1123C30.9559 12.3708 30.8913 12.4354 30.8913 12.4354C30.8913 12.4354 30.5036 12.4354 30.3097 12.4354C29.211 12.4354 27.9832 12.8878 27.9832 14.3742C27.9832 15.5375 28.7587 15.796 29.211 15.796C30.1158 15.796 30.5036 15.2143 30.5682 15.2143L30.5036 15.7314H31.6668L32.1838 12.1769C32.1838 10.6905 30.8913 10.6259 30.3743 10.6259L28.694 11.9184ZM31.3437 13.4048C31.3437 13.5987 30.5682 14.6327 29.7927 14.6327C29.4049 14.6327 29.2757 14.3096 29.2757 14.1157C29.2757 13.7926 29.4695 13.3402 30.4389 13.3402C30.6974 13.4048 31.3437 13.4048 31.3437 13.4048Z" fill="#DCE5E5"/>
<path d="M31.9253 15.6667H33.2824C33.6702 13.5341 33.7348 11.7892 34.6396 12.1123C34.7688 11.2722 34.9627 10.949 35.092 10.6259C35.092 10.6259 35.0273 10.6259 34.8335 10.6259C34.2518 10.6259 33.7994 11.4014 33.7994 11.4014L33.9287 10.6905" fill="#DCE5E5"/>
</g>
<defs>
<clipPath id="clip0_55_296">
<rect width="40.7144" height="25" fill="white"/>
</clipPath>
</defs>
</svg>
