<svg width="24" height="25" viewBox="0 0 24 25" fill="none" xmlns="http://www.w3.org/2000/svg">
<path fill-rule="evenodd" clip-rule="evenodd" d="M16.1407 0.0984344C17.4152 -0.287146 18.7435 0.494291 19.1077 1.84382C19.1689 2.07087 19.2 2.30585 19.2 2.54198V4.66943H21.6C22.9255 4.66943 24 5.80722 24 7.21076V22.4587C24 23.8622 22.9255 25 21.6 25H2.4C1.07452 25 0 23.8622 0 22.4587H0.0320481C0.0107434 22.322 0 22.1836 0 22.0448V6.89853C0 5.76388 0.710346 4.7667 1.74067 4.45499L16.1407 0.0984344ZM9.76798 22.4587H21.6V12.2933H19.2V17.6882C19.2 18.8229 18.4897 19.8201 17.4593 20.1318L9.76798 22.4587ZM21.6 7.21076V9.75195H19.2V7.21076H21.6ZM2.4 6.89855V22.0448L16.8 17.6882V2.54199L2.4 6.89855ZM14.4 9.75211C14.4 10.4539 13.8627 11.0228 13.2 11.0228C12.5373 11.0228 12 10.4539 12 9.75211C12 9.05034 12.5373 8.48145 13.2 8.48145C13.8627 8.48145 14.4 9.05034 14.4 9.75211Z" fill="black"/>
</svg>
