<svg width="83" height="25" viewBox="0 0 83 25" fill="none" xmlns="http://www.w3.org/2000/svg">
<g clip-path="url(#clip0_55_334)">
<path d="M30.2358 24.346L34.4244 0.785522H40.9689L36.9113 24.346H30.2358Z" fill="#3C58BF"/>
<path d="M30.2358 24.346L35.6024 0.785522H40.9689L36.9113 24.346H30.2358Z" fill="#293688"/>
<path d="M60.6028 1.04713C59.2939 0.523565 57.1996 0 54.5818 0C48.0372 0 43.3251 3.27228 43.3251 7.98437C43.3251 11.5184 46.5974 13.3509 49.2152 14.5289C51.8331 15.707 52.6184 16.4923 52.6184 17.5394C52.6184 19.1101 50.5242 19.8955 48.6917 19.8955C46.0739 19.8955 44.6341 19.5028 42.4089 18.5866L41.4927 18.1939L40.5764 23.5604C42.1471 24.2149 45.0267 24.8694 48.0372 24.8694C54.9745 24.8694 59.5557 21.5971 59.5557 16.6232C59.5557 13.8745 57.8541 11.7802 53.9273 10.0786C51.5713 8.90061 50.1315 8.24616 50.1315 7.06813C50.1315 6.021 51.3095 4.97387 53.9273 4.97387C56.1525 4.97387 57.7232 5.36655 58.9012 5.89011L59.5557 6.15189L60.6028 1.04713Z" fill="#3C58BF"/>
<path d="M60.6028 1.04713C59.2939 0.523565 57.1996 0 54.5818 0C48.0372 0 44.5032 3.27228 44.5032 7.98437C44.5032 11.5184 46.5974 13.3509 49.2152 14.5289C51.8331 15.707 52.6184 16.4923 52.6184 17.5394C52.6184 19.1101 50.5242 19.8955 48.6917 19.8955C46.0739 19.8955 44.6341 19.5028 42.4089 18.5866L41.4927 18.1939L40.5764 23.5604C42.1471 24.2149 45.0267 24.8694 48.0372 24.8694C54.9745 24.8694 59.5557 21.5971 59.5557 16.6232C59.5557 13.8745 57.8541 11.7802 53.9273 10.0786C51.5713 8.90061 50.1315 8.24616 50.1315 7.06813C50.1315 6.021 51.3095 4.97387 53.9273 4.97387C56.1525 4.97387 57.7232 5.36655 58.9012 5.89011L59.5557 6.15189L60.6028 1.04713Z" fill="#293688"/>
<path d="M71.8594 0.785522C70.2887 0.785522 69.1107 0.916415 68.4563 2.48711L58.6394 24.346H65.7075L67.0165 20.4192H75.3935L76.1789 24.346H82.4616L76.9642 0.785522H71.8594ZM68.8489 16.4925C69.2416 15.3145 71.4668 9.55525 71.4668 9.55525C71.4668 9.55525 71.9903 8.11544 72.383 7.1992L72.7757 9.42435C72.7757 9.42435 74.0846 15.3145 74.3464 16.6234H68.8489V16.4925Z" fill="#3C58BF"/>
<path d="M73.4301 0.785522C71.8594 0.785522 70.6814 0.916415 70.027 2.48711L58.6394 24.346H65.7075L67.0165 20.4192H75.3935L76.1789 24.346H82.4616L76.9642 0.785522H73.4301ZM68.8489 16.4925C69.3725 15.1836 71.4668 9.55525 71.4668 9.55525C71.4668 9.55525 71.9903 8.11544 72.383 7.1992L72.7757 9.42435C72.7757 9.42435 74.0846 15.3145 74.3464 16.6234H68.8489V16.4925Z" fill="#293688"/>
<path d="M18.1941 17.2776L17.5396 13.8744C16.3616 9.94764 12.5657 5.62823 8.3772 3.53397L14.2673 24.4766H21.3354L31.9376 0.916138H24.8695L18.1941 17.2776Z" fill="#3C58BF"/>
<path d="M18.1941 17.2776L17.5396 13.8744C16.3616 9.94764 12.5657 5.62823 8.3772 3.53397L14.2673 24.4766H21.3354L31.9376 0.916138H26.1784L18.1941 17.2776Z" fill="#293688"/>
<path d="M0 0.785522L1.17802 1.04731C9.55507 3.01068 15.3143 7.98455 17.5394 13.8747L15.1834 2.74889C14.7907 1.1782 13.6127 0.785522 12.1729 0.785522H0Z" fill="#FFBC00"/>
<path d="M0 0.785522C8.37705 2.74889 15.3143 7.85366 17.5394 13.7438L15.3143 4.45048C14.9216 2.87979 13.6127 1.96355 12.1729 1.96355L0 0.785522Z" fill="#F7981D"/>
<path d="M0 0.785522C8.37705 2.74889 15.3143 7.85366 17.5394 13.7438L15.9687 8.639C15.5761 7.06831 15.0525 5.49761 13.22 4.84316L0 0.785522Z" fill="#ED7C00"/>
<path d="M24.7383 16.4925L20.288 12.0422L18.1938 17.016L17.6702 13.7437C16.4922 9.817 12.6963 5.49758 8.50781 3.40332L14.3979 24.3459H21.4661L24.7383 16.4925Z" fill="#051244"/>
<path d="M36.9113 24.3458L31.283 18.5866L30.2358 24.3458H36.9113Z" fill="#051244"/>
<path d="M51.964 16.2306C52.4875 16.7542 52.7493 17.1468 52.6184 17.6704C52.6184 19.2411 50.5242 20.0264 48.6917 20.0264C46.0739 20.0264 44.6341 19.6338 42.4089 18.7175L41.4927 18.3249L40.5764 23.6914C42.1471 24.3459 45.0267 25.0003 48.0372 25.0003C52.2258 25.0003 55.6289 23.8223 57.5923 21.728L51.964 16.2306Z" fill="#051244"/>
<path d="M59.5557 24.3459H65.7076L67.0165 20.4192H75.3935L76.1789 24.3459H82.4617L80.2365 14.7909L72.383 7.19916L72.7757 9.29342C72.7757 9.29342 74.0846 15.1835 74.3464 16.4924H68.849C69.3725 15.1835 71.4668 9.5552 71.4668 9.5552C71.4668 9.5552 71.9903 8.1154 72.383 7.19916" fill="#051244"/>
</g>
<defs>
<clipPath id="clip0_55_334">
<rect width="83" height="25" fill="white"/>
</clipPath>
</defs>
</svg>
